<svg xmlns="http://www.w3.org/2000/svg" viewBox="0 0 617.83 257.43"><g id="Layer_2" data-name="Layer 2"><g id="Layer_1-2" data-name="Layer 1"><path d="M448.68,69.81c-2.78,1.66-5.78,3-8.3,5-15,11.78-25.61,27.07-33.37,44.27-5.75,12.74-10.63,25.87-16,38.78a39.8,39.8,0,0,1-3.54,5.64c-1.47-1.67-3-3.31-4.41-5a14.64,14.64,0,0,1-1.22-2c-22.26,13.53-31.5,10.86-37.28-11.37-1.41,1.63-2.41,3-3.61,4.14-4.08,3.89-7.79,8.37-12.43,11.41-10.75,7-21.68,2.93-26-9.12-.61-1.71-1.11-3.46-1.94-6.08-1.64,1.81-2.72,3.41-4.18,4.52C291,154.11,286,159.09,280,161.84c-12.29,5.61-23.48-.35-27.14-13.31-.26-.92-.6-1.83-1.18-3.55-2,2.49-3.6,4.5-5.26,6.43-4.77,5.53-10.3,10-17.46,12-11.52,3.26-20.31-2.2-22.55-13.93-.28-1.46-.46-2.94-.82-5.32-2.17,1.81-3.93,3.15-5.54,4.65-8.3,7.71-16.76,15.24-24.76,23.24-7.76,7.75-10.31,17.12-7.48,28,1.53,5.87,3.89,10.62,10,12.59,4.38,1.4,4.53,4,2.49,7.63-4.39,7.83-11.95,10.51-19.86,6.54-6-3-11.32-1.82-16.4,1.85-8,5.77-12.6,14.05-16.92,22.56-1.38,2.73-2.08,7-6.06,6.08a15,15,0,0,1-8.22-5.49c-8.08-11.77-8.29-24.55-3.65-37.73,6.67-19,20.22-31.75,37.24-41.4,8.46-4.79,10.71-8.24,12.09-19.39-6.52,5.52-12.67,11.22-21.58,10.3-9.92-1-13-8.68-15.56-17.94-1.72,2-2.91,3.45-4.09,4.88-5.11,6.15-11.08,11.11-19,13.06-11.46,2.81-19.75-2.87-21.68-14.49-1.73-10.43.43-20.43,4.29-29.82,7.65-18.61,16.1-36.9,24.42-55.23.83-1.83,3.06-3,4.65-4.53,1.2,1.9,2.91,3.65,3.51,5.72,2.58,9,.42,17.53-3,25.79C105,104,99,116.6,94,129.64a69.21,69.21,0,0,0-4.2,18.89c-.66,7.69,4.79,10.83,10.79,5.95a65.22,65.22,0,0,0,14.25-16.37c4.22-6.88,7.15-14.64,10-22.25,6.61-17.57,16.06-33.29,29.44-46.48a54,54,0,0,1,11.94-8.94c12.92-7.07,20.87-3.31,24.21,11.53a16.94,16.94,0,0,0,2.21-2.57c1.48-2.79,2.66-5.76,4.27-8.47.87-1.45,2.39-2.51,3.62-3.74,1.25,1.42,3,2.64,3.65,4.3a30.29,30.29,0,0,1-.5,21.54c-5.92,15.38-12.33,30.58-18.44,45.89-3.86,9.68-7.52,19.44-11.75,30.38a38.53,38.53,0,0,0,4.11-1.94,101.13,101.13,0,0,0,28.84-28.75c2.94-4.48,4-10.17,6.19-15.17Q223.75,88.6,235.16,64c.81-1.77,2.81-3,4.26-4.46,1.27,1.82,3.11,3.46,3.72,5.47a32.29,32.29,0,0,1-1.31,21.56c-5.9,14.68-12.45,29.09-18.19,43.82a70.38,70.38,0,0,0-3.88,17.43c-.3,2.6,1,7.2,2.6,7.77,2.6.9,7.29.25,9-1.63,6-6.57,12.07-13.42,16.2-21.18s6.26-16.42,8.5-24.9c8.48-32.08,24.2-60.48,43.62-87,1-1.31,1.88-2.67,3.08-4.37a12.74,12.74,0,0,0-2.7-.75c-53.81-.87-107.62-1.81-161.43-2.43a113.72,113.72,0,0,0-22.3,2.36,12.86,12.86,0,0,0-7.73,5.31Q66.15,90.67,24.15,160.72c-3.56,5.92-5.2,6.19-9.78.94C9.2,155.73,6.47,148.61,7,141c1-14.43,3-28.78,4.41-43.18,1.62-16.55,3.78-33.1,4.31-49.69C16.18,34.19,12.18,21.32,0,12.76c.06-.56,0-1,.15-1.17C9.64,5,20.35,1.59,31.68.19c1.27-.16,3.9,2,4.12,3.32,1.09,7,3,14.24,2.06,21C34.76,46.77,30.48,68.85,26.78,91,24.29,106,22,121,20.63,136.42c.83-1.39,1.72-2.75,2.47-4.18A1156,1156,0,0,1,101.11,5c2.63-3.7,5.49-5.07,9.94-4.94,49.63,1.33,99.28,2.34,149,3.88,65,2,129.9,4.4,194.85,6.67,17.65.62,35.3,1.41,52.95,2a117.51,117.51,0,0,0,13-.24c8.07-.64,15.41,0,23,4.29C558.55,25,574.08,32,589.25,39.67c8.48,4.27,16.86,8.74,25.36,13,2.86,1.42,3.67,3.23,3,6.39-2.28,10.68-6.31,14.4-16.66,17-3.72.94-7.3,3.77-10.14,6.56-3.13,3.08-5.34,7.11-8.56,11.57-10.7-13-22.56-23.72-39.2-27.87,7-6.68,14.54-7.1,22.14-1.47,4,3,7.8,6.24,11.57,9.5,3.35,2.9,5.86,2.26,9-.75s6.87-5,10.42-7.32a37.71,37.71,0,0,0,7.66-5.94c-.91-.4-1.84-.75-2.73-1.19C580.22,49,559.54,38.57,538.72,28.5c-5.8-2.81-9.45-1.45-12.12,4.55-13.19,29.67-26.44,59.31-39,89.27-2.79,6.69-2.9,14.56-3.8,21.94-.28,2.34.56,5,1.46,7.26,2.15,5.36,7,7.43,11.69,4.12a46.35,46.35,0,0,0,11.86-11.84c4.83-7.32,8.46-15.44,12.72-23.15.72-1.31,2.09-2.26,3.16-3.38.72,1.52,2.12,3.08,2,4.55a38.39,38.39,0,0,1-1.83,10.73,55.09,55.09,0,0,1-20.1,26.76c-13.12,9.3-25.77,5.39-31.73-9.52-.43-1-.88-2.1-1.59-3.79-2.34,2.78-4,5.59-6.36,7.37-5.27,3.92-10.49,8.54-16.51,10.68-11.69,4.15-21.9-2.91-23.53-15.2-1.59-12,1.5-23.24,6-34,5.22-12.43,11.17-24.55,16.71-36.84A68.78,68.78,0,0,0,450,71.11Zm64.45-49.1c-6.2,0-11.14.1-16.07,0q-81-1.86-161.9-3.81c-10.76-.26-10.75-.32-13,10.12-6.84,31.25-23.8,56.43-46.93,77.93-1.44,1.34-3.41,2.76-3.8,4.45-2.57,11.15-5.1,22.34-7,33.62-.76,4.65-.78,10.41,4.53,12.75,5.05,2.23,9.41-1.15,13-4.4,9.69-8.74,17.07-19.22,21-31.69,5.76-18.14,15.49-33.86,28-48,5.79-6.52,12.32-12.23,20.93-14.84,8.8-2.68,15.61,1.36,17.62,10.37.34,1.49.58,3,.87,4.51a21.59,21.59,0,0,0,4.36-6.53,72.22,72.22,0,0,1,3.55-6.6c2.17-3.37,3.87-3.28,5.67.28a19,19,0,0,1,1.7,5.19c1.52,8.84-.32,17.2-4,25.26C375,104.2,367.94,119,361.75,134a49.19,49.19,0,0,0-3.17,17c-.21,5.9,4,8,9.17,5,6.81-4,12.24-9.78,14.46-17.26,8.22-27.64,21-53.22,34.35-78.6A41.75,41.75,0,0,1,420,55.41c6.45,7.93,4.19,16.5,3.88,26,2-2.25,3.08-3.68,4.37-4.88,6.08-5.65,11.84-11.75,18.46-16.69s11.72-3,15.41,4.34c3.81,7.55,3.22,15.11-.08,22.66-6.88,15.7-14.1,31.27-20.37,47.2-2,5-2.14,11.12-1.76,16.63.4,5.74,5.33,7.78,10.28,4.72a28.5,28.5,0,0,0,7.33-6.65C465,139.21,470,128.6,474,117.06c6.58-19,15-37.37,22.63-56,.66-1.61,1.27-3.23,1.87-4.76-4.64-1.17-8.8-1.79-12.56-3.37-1.45-.6-2.76-3.41-2.68-5.14.06-1.19,2.48-2.87,4.11-3.27,4.5-1.12,9.16-1.58,13.72-2.52,1.36-.27,3.28-.92,3.75-1.94C507.78,34,510.24,27.67,513.13,20.71ZM314.43,144.83l1.14.35c.06,1,.06,2,.17,3,.81,7.12,4.67,9.06,10.53,5a29.79,29.79,0,0,0,6.49-6.14c12.79-16.33,21.19-35,27.92-54.38A67.82,67.82,0,0,0,364,78.12c.28-2.5-.5-6.43-2.18-7.46s-5.27.47-7.57,1.71A27.47,27.47,0,0,0,347.86,78a122,122,0,0,0-25,39.4C319.3,126.19,317.18,135.63,314.43,144.83Zm-178.55-.54c.08,1.63-.14,2.75.23,3.6,1.07,2.45,1.86,6.06,3.74,6.84s5.69-.41,7.59-2a50.93,50.93,0,0,0,9.27-10.34,198.1,198.1,0,0,0,23.94-49.26,73.38,73.38,0,0,0,3.25-15.07c.24-2.28-.79-5.64-2.45-6.88-1.19-.88-4.64.56-6.65,1.72a23.12,23.12,0,0,0-6.41,5.49c-5.78,7.29-11.83,14.45-16.8,22.28-8.54,13.48-14.59,28-15.71,43.62Zm13.65,37.33c-1.42.18-1.84.1-2.05.28-17.26,14.1-28.31,31.86-31.59,54.1-.29,1.91.41,4,.65,6l2,.51c14.89-17.71,22.51-39.17,31-60.89ZM276.82,93l1,.66a4.76,4.76,0,0,0,1.2-.73c15.23-16.64,26-35.66,30.7-57.88.43-2.09.06-4.34.06-6.51L308,28C295.36,48.51,287,71.15,276.82,93Z"/><path d="M112.49,44.28c.14-1.14.18-2.31.43-3.44.84-3.75,1.67-8,6.17-8.65,4.74-.73,7,3,8.75,6.72,2.48,5.37,2.75,10.91,0,16.31-2.45,4.85-7.59,5.75-10.75,1.36-2.5-3.47-3.74-7.86-5.53-11.84Z"/><path d="M241.66,44.37c1-7,3.73-12,7.55-12.34s8.46,3.77,9.49,10a27.91,27.91,0,0,1-.81,12.55c-1.87,5.86-8,6.62-11.44,1.47C244.17,52.59,243.21,48.28,241.66,44.37Z"/></g></g></svg>